<svg width="136" height="136" viewBox="0 0 136 136" fill="none" xmlns="http://www.w3.org/2000/svg">
<rect width="136" height="136" fill="#131313"/>
<path d="M31.6468 89V43.56H40.7988V81H60.8948V89H31.6468ZM87.5213 89.448C80.7799 89.448 75.2333 87.3787 70.8813 83.24C66.5293 79.1013 64.3533 73.4693 64.3533 66.344C64.3533 59.5173 66.4013 53.928 70.4973 49.576C74.6359 45.1813 80.1826 42.984 87.1373 42.984C90.5079 42.984 93.7933 43.6453 96.9933 44.968C100.193 46.2907 102.924 48.2107 105.185 50.728L98.8493 56.232C95.6919 53.0747 91.7879 51.496 87.1373 51.496C83.2973 51.496 80.0973 52.84 77.5373 55.528C75.0199 58.216 73.7613 61.8213 73.7613 66.344C73.7613 70.6533 74.9986 74.216 77.4733 77.032C79.9906 79.848 83.3399 81.256 87.5213 81.256C90.8066 81.256 93.8573 80.3813 96.6733 78.632V71.976H86.4973V64.232H105.441V83.816C103.308 85.5227 100.641 86.888 97.4412 87.912C94.2413 88.936 90.9346 89.448 87.5213 89.448Z" fill="white"/>
</svg>
